<svg width="16" height="16" viewBox="0 0 16 16" fill="#0A314E" xmlns="http://www.w3.org/2000/svg">
<path d="M15.7926 8.25228L8.59343 0.253172C8.29026 -0.0843906 7.70793 -0.0843906 7.40476 0.253172L0.205564 8.25228C0.101941 8.36714 0.033923 8.50964 0.00978135 8.66244C-0.0143603 8.81524 0.00641428 8.97177 0.0695792 9.11298C0.197565 9.40175 0.483933 9.58733 0.799898 9.58733H2.39972V15.1867C2.39972 15.3989 2.48399 15.6023 2.63401 15.7523C2.78402 15.9023 2.98748 15.9866 3.19963 15.9866H5.59936C5.81151 15.9866 6.01497 15.9023 6.16498 15.7523C6.315 15.6023 6.39927 15.3989 6.39927 15.1867V11.9871H9.59891V15.1867C9.59891 15.3989 9.68319 15.6023 9.8332 15.7523C9.98322 15.9023 10.1867 15.9866 10.3988 15.9866H12.7986C13.0107 15.9866 13.2142 15.9023 13.3642 15.7523C13.5142 15.6023 13.5985 15.3989 13.5985 15.1867V9.58733H15.1983C15.3532 9.58799 15.505 9.54356 15.6351 9.45946C15.7652 9.37536 15.868 9.25522 15.931 9.1137C15.994 8.97217 16.0145 8.81537 15.9899 8.66241C15.9653 8.50945 15.8968 8.36695 15.7926 8.25228Z" fill="#6BB3D3"/>
</svg>
