<svg width="18" height="18" viewBox="0 0 18 18" fill="none" xmlns="http://www.w3.org/2000/svg">
<path d="M6.8 1C6.8 0.447715 6.35228 0 5.8 0C5.24772 0 4.8 0.447715 4.8 1H6.8ZM4.8 4.2C4.8 4.75228 5.24772 5.2 5.8 5.2C6.35228 5.2 6.8 4.75228 6.8 4.2H4.8ZM13.2 1C13.2 0.447715 12.7523 0 12.2 0C11.6477 0 11.2 0.447715 11.2 1H13.2ZM11.2 4.2C11.2 4.75228 11.6477 5.2 12.2 5.2C12.7523 5.2 13.2 4.75228 13.2 4.2H11.2ZM1 6.4C0.447715 6.4 0 6.84772 0 7.4C0 7.95228 0.447715 8.4 1 8.4V6.4ZM17 8.4C17.5523 8.4 18 7.95228 18 7.4C18 6.84772 17.5523 6.4 17 6.4V8.4ZM4.2 3.6H13.8V1.6H4.2V3.6ZM13.8 3.6C15.015 3.6 16 4.58497 16 5.8H18C18 3.4804 16.1196 1.6 13.8 1.6V3.6ZM16 5.8V13.8H18V5.8H16ZM16 13.8C16 15.015 15.015 16 13.8 16V18C16.1196 18 18 16.1196 18 13.8H16ZM13.8 16H4.2V18H13.8V16ZM4.2 16C2.98497 16 2 15.015 2 13.8H0C0 16.1196 1.8804 18 4.2 18V16ZM2 13.8V5.8H0V13.8H2ZM2 5.8C2 4.58497 2.98497 3.6 4.2 3.6V1.6C1.8804 1.6 0 3.4804 0 5.8H2ZM4.8 1V4.2H6.8V1H4.8ZM11.2 1V4.2H13.2V1H11.2ZM1 8.4H17V6.4H1V8.4Z" fill="#24354D"/>
</svg>
