<svg width="16" height="12" viewBox="0 0 16 12" fill="none" xmlns="http://www.w3.org/2000/svg">
<path d="M7 11.995C7 11.995 6 11.995 6 10.9954C6 9.99585 7 6.9971 11 6.9971C15 6.9971 16 9.99585 16 10.9954C16 11.995 15 11.995 15 11.995H7ZM11 5.99751C11.7956 5.99751 12.5587 5.68157 13.1213 5.1192C13.6839 4.55682 14 3.79408 14 2.99876C14 2.20344 13.6839 1.44069 13.1213 0.878315C12.5587 0.31594 11.7956 0 11 0C10.2043 0 9.44129 0.31594 8.87868 0.878315C8.31607 1.44069 8 2.20344 8 2.99876C8 3.79408 8.31607 4.55682 8.87868 5.1192C9.44129 5.68157 10.2043 5.99751 11 5.99751Z" fill="#24354D"/>
<path fill-rule="evenodd" clip-rule="evenodd" d="M5.216 11.995C5.06775 11.6829 4.99382 11.3408 5 10.9954C5 9.64092 5.68 8.24648 6.936 7.27687C6.30909 7.08379 5.65595 6.98936 5 6.99699C1 6.99699 0 9.99578 0 10.9954C0 11.995 1 11.995 1 11.995H5.216Z" fill="#24354D"/>
<path d="M4.5 5.99749C5.16304 5.99749 5.79893 5.7342 6.26777 5.26556C6.73661 4.79692 7 4.1613 7 3.49854C7 2.83578 6.73661 2.20016 6.26777 1.73152C5.79893 1.26288 5.16304 0.999598 4.5 0.999598C3.83696 0.999598 3.20107 1.26288 2.73223 1.73152C2.26339 2.20016 2 2.83578 2 3.49854C2 4.1613 2.26339 4.79692 2.73223 5.26556C3.20107 5.7342 3.83696 5.99749 4.5 5.99749Z" fill="#24354D"/>
</svg>
