<svg width="16" height="16" viewBox="0 0 16 16" fill="none" xmlns="http://www.w3.org/2000/svg">
<path d="M11.4435 0.0229734C11.5619 0.0601127 11.6598 0.140161 11.7158 0.245513C11.7717 0.350865 11.7811 0.472892 11.7418 0.584756L11.2713 1.9181C11.2318 2.03008 11.1469 2.12268 11.0352 2.17552C10.9235 2.22837 10.7941 2.23713 10.6756 2.19988C10.557 2.16263 10.459 2.08243 10.4031 1.9769C10.3471 1.87138 10.3378 1.74919 10.3773 1.63721L10.8478 0.303865C10.8673 0.248457 10.8983 0.197234 10.9388 0.153124C10.9793 0.109015 11.0287 0.0728832 11.084 0.046796C11.1393 0.0207089 11.1995 0.00517753 11.2612 0.00108985C11.3229 -0.00299783 11.3848 0.00443838 11.4435 0.0229734ZM14.9225 1.64788C14.9663 1.60655 15.001 1.5575 15.0246 1.5035C15.0483 1.44951 15.0605 1.39165 15.0605 1.33321C15.0605 1.27477 15.0483 1.2169 15.0246 1.16291C15.001 1.10892 14.9663 1.05986 14.9225 1.01854C14.8788 0.977214 14.8268 0.944435 14.7697 0.922072C14.7125 0.899708 14.6512 0.888197 14.5894 0.888197C14.5275 0.888197 14.4662 0.899708 14.4091 0.922072C14.3519 0.944435 14.3 0.977214 14.2562 1.01854L12.3742 2.79633C12.3304 2.83759 12.2957 2.88659 12.272 2.94053C12.2483 2.99447 12.2361 3.05229 12.236 3.11069C12.236 3.22863 12.2855 3.34177 12.3737 3.42522C12.4619 3.50868 12.5816 3.55561 12.7065 3.5557C12.8313 3.55578 12.9511 3.50901 13.0395 3.42567L14.9216 1.64788H14.9225ZM5.2787 1.90655C5.41007 1.64548 5.60685 1.41861 5.85198 1.24559C6.09712 1.07257 6.38322 0.95862 6.6855 0.913615C6.98779 0.86861 7.29712 0.893906 7.58672 0.987311C7.87631 1.08072 8.13743 1.23941 8.34744 1.44965L14.5461 7.65415C14.7529 7.86116 14.9041 8.11207 14.987 8.38576C15.0698 8.65946 15.0819 8.94794 15.0221 9.22695C14.9623 9.50596 14.8325 9.76733 14.6436 9.98909C14.4546 10.2108 14.2121 10.3865 13.9363 10.5013L10.2314 12.0444C10.3687 12.5071 10.3909 12.9935 10.2961 13.4656C10.2014 13.9377 9.99224 14.3827 9.68513 14.7657C9.37802 15.1488 8.98125 15.4595 8.52585 15.6736C8.07046 15.8878 7.56879 15.9995 7.0601 16C6.49944 16.0003 5.94799 15.8653 5.45805 15.6078C4.9681 15.3504 4.55589 14.979 4.26049 14.5289L3.13124 14.9982C2.87182 15.1063 2.58397 15.138 2.30518 15.0893C2.02638 15.0407 1.76956 14.9138 1.56817 14.7253L0.418217 13.6489C0.210282 13.4543 0.0715068 13.2035 0.0210972 12.9312C-0.0293125 12.6589 0.011136 12.3785 0.136845 12.1289L5.2787 1.90743V1.90655ZM5.13378 14.1644C5.44611 14.5856 5.9034 14.8914 6.4277 15.0298C6.95201 15.1681 7.51088 15.1304 8.00907 14.9231C8.50726 14.7158 8.91392 14.3518 9.15975 13.893C9.40557 13.4342 9.47535 12.909 9.35718 12.4071L5.13378 14.1644ZM14.1179 4.44434C13.9931 4.44434 13.8734 4.49117 13.7852 4.57452C13.697 4.65787 13.6474 4.77092 13.6474 4.88879C13.6474 5.00667 13.697 5.11972 13.7852 5.20307C13.8734 5.28642 13.9931 5.33324 14.1179 5.33324H15.5295C15.6543 5.33324 15.7739 5.28642 15.8622 5.20307C15.9504 5.11972 16 5.00667 16 4.88879C16 4.77092 15.9504 4.65787 15.8622 4.57452C15.7739 4.49117 15.6543 4.44434 15.5295 4.44434H14.1179Z" fill="#24354D"/>
</svg>
