<svg width="19" height="14" viewBox="0 0 19 14" fill="none" xmlns="http://www.w3.org/2000/svg">
<path d="M8.16667 14C8.16667 14 7 14 7 12.8333C7 11.6667 8.16667 8.16667 12.8333 8.16667C17.5 8.16667 18.6667 11.6667 18.6667 12.8333C18.6667 14 17.5 14 17.5 14H8.16667ZM12.8333 7C13.7616 7 14.6518 6.63125 15.3082 5.97487C15.9646 5.3185 16.3333 4.42826 16.3333 3.5C16.3333 2.57174 15.9646 1.6815 15.3082 1.02513C14.6518 0.368749 13.7616 0 12.8333 0C11.9051 0 11.0148 0.368749 10.3585 1.02513C9.70208 1.6815 9.33333 2.57174 9.33333 3.5C9.33333 4.42826 9.70208 5.3185 10.3585 5.97487C11.0148 6.63125 11.9051 7 12.8333 7Z" fill="#24354D"/>
<path fill-rule="evenodd" clip-rule="evenodd" d="M6.08533 13.9998C5.91238 13.6356 5.82613 13.2363 5.83333 12.8332C5.83333 11.2523 6.62667 9.62485 8.092 8.49318C7.36061 8.26782 6.59861 8.15762 5.83333 8.16651C1.16667 8.16651 0 11.6665 0 12.8332C0 13.9998 1.16667 13.9998 1.16667 13.9998H6.08533Z" fill="#24354D"/>
<path d="M5.24967 6.99984C6.02322 6.99984 6.76509 6.69255 7.31207 6.14557C7.85905 5.59858 8.16634 4.85672 8.16634 4.08317C8.16634 3.30962 7.85905 2.56776 7.31207 2.02078C6.76509 1.47379 6.02322 1.1665 5.24967 1.1665C4.47613 1.1665 3.73426 1.47379 3.18728 2.02078C2.6403 2.56776 2.33301 3.30962 2.33301 4.08317C2.33301 4.85672 2.6403 5.59858 3.18728 6.14557C3.73426 6.69255 4.47613 6.99984 5.24967 6.99984Z" fill="#24354D"/>
</svg>
