<svg width="21" height="22" viewBox="0 0 21 22" fill="none" xmlns="http://www.w3.org/2000/svg">
<path d="M20.16 0.694336H0.84C0.375375 0.694336 0 1.06971 0 1.53434V20.8543C0 21.319 0.375375 21.6943 0.84 21.6943H20.16C20.6246 21.6943 21 21.319 21 20.8543V1.53434C21 1.06971 20.6246 0.694336 20.16 0.694336ZM17.7345 6.82371H16.0571C14.742 6.82371 14.4874 7.44846 14.4874 8.36721V10.3911H17.6269L17.2174 13.5595H14.4874V21.6943H11.214V13.5621H8.47612V10.3911H11.214V8.05484C11.214 5.34321 12.8704 3.86534 15.2906 3.86534C16.4509 3.86534 17.4457 3.95196 17.7371 3.99134V6.82371H17.7345Z" fill="white"/>
</svg>
