<svg width="16" height="18" viewBox="0 0 16 18" fill="none" xmlns="http://www.w3.org/2000/svg">
<path d="M7.13244 8.47645L6.22222 7.11111L4.44444 9.77778H12.4444L9.33333 5.33333L7.13244 8.47645Z" fill="#24354D"/>
<path d="M5.78045 6.22222C6.5183 6.22222 7.11645 5.62407 7.11645 4.88622C7.11645 4.14837 6.5183 3.55022 5.78045 3.55022C5.04259 3.55022 4.44444 4.14837 4.44444 4.88622C4.44444 5.62407 5.04259 6.22222 5.78045 6.22222Z" fill="#24354D"/>
<path d="M14.2222 0H2.66667C1.59467 0 0 0.710222 0 2.66667V15.1111C0 17.0676 1.59467 17.7778 2.66667 17.7778H16V16H2.67733C2.26667 15.9893 1.77778 15.8276 1.77778 15.1111C1.77778 14.3947 2.26667 14.2329 2.67733 14.2222H16V1.77778C16 0.797333 15.2027 0 14.2222 0ZM14.2222 12.4444H1.77778V2.66667C1.77778 1.95022 2.26667 1.78844 2.66667 1.77778H14.2222V12.4444Z" fill="#24354D"/>
</svg>
