<svg width="21" height="19" viewBox="0 0 21 19" fill="none" xmlns="http://www.w3.org/2000/svg">
<path d="M20.25 0.694336H0.75C0.335156 0.694336 0 1.05996 0 1.51252V17.8762C0 18.3287 0.335156 18.6943 0.75 18.6943H20.25C20.6648 18.6943 21 18.3287 21 17.8762V1.51252C21 1.05996 20.6648 0.694336 20.25 0.694336ZM19.3125 3.52729V16.8534H1.6875V3.52729L1.04063 2.97757L1.96172 1.68638L2.96484 2.5378H18.0375L19.0406 1.68638L19.9617 2.97757L19.3125 3.52729ZM18.0375 2.53525L10.5 8.92729L2.9625 2.53525L1.95938 1.68382L1.03828 2.97502L1.68516 3.52473L9.69141 10.3156C9.92165 10.5108 10.2049 10.6167 10.4965 10.6167C10.7881 10.6167 11.0713 10.5108 11.3016 10.3156L19.3125 3.52729L19.9594 2.97757L19.0383 1.68638L18.0375 2.53525Z" fill="white"/>
</svg>
