<svg width="21" height="22" viewBox="0 0 21 22" fill="none" xmlns="http://www.w3.org/2000/svg">
<path fill-rule="evenodd" clip-rule="evenodd" d="M6.17114 0.757336C7.29082 0.70579 7.64782 0.694336 10.5 0.694336C13.3522 0.694336 13.7092 0.706745 14.8279 0.757336C15.9466 0.807927 16.7103 0.986427 17.3785 1.24511C18.0781 1.50952 18.7129 1.92284 19.2379 2.45738C19.7725 2.98143 20.1848 3.61525 20.4483 4.31588C20.7079 4.98406 20.8855 5.7477 20.937 6.86452C20.9885 7.98611 21 8.34311 21 11.1943C21 14.0465 20.9876 14.4035 20.937 15.5232C20.8864 16.64 20.7079 17.4037 20.4483 18.0718C20.1848 18.7726 19.7718 19.4074 19.2379 19.9322C18.7129 20.4668 18.0781 20.8792 17.3785 21.1426C16.7103 21.4022 15.9466 21.5798 14.8298 21.6313C13.7092 21.6829 13.3522 21.6943 10.5 21.6943C7.64782 21.6943 7.29082 21.6819 6.17114 21.6313C5.05432 21.5807 4.29068 21.4022 3.6225 21.1426C2.92179 20.8791 2.28692 20.4661 1.76209 19.9322C1.22791 19.4079 0.814528 18.7733 0.550773 18.0728C0.292091 17.4046 0.114545 16.641 0.063 15.5242C0.0114545 14.4026 0 14.0456 0 11.1943C0 8.34215 0.0124091 7.98515 0.063 6.86643C0.113591 5.7477 0.292091 4.98406 0.550773 4.31588C0.814917 3.61532 1.22861 2.98077 1.76305 2.45643C2.28713 1.92236 2.92136 1.50899 3.62155 1.24511C4.28973 0.986427 5.05336 0.808881 6.17018 0.757336H6.17114ZM14.743 2.64734C13.6357 2.59675 13.3035 2.58625 10.5 2.58625C7.6965 2.58625 7.36432 2.59675 6.25705 2.64734C5.23282 2.69411 4.67727 2.86497 4.30691 3.00911C3.81723 3.20002 3.46691 3.42625 3.09941 3.79375C2.75104 4.13266 2.48294 4.54524 2.31477 5.00125C2.17064 5.37161 1.99977 5.92715 1.953 6.95138C1.90241 8.05865 1.89191 8.39084 1.89191 11.1943C1.89191 13.9978 1.90241 14.33 1.953 15.4373C1.99977 16.4615 2.17064 17.0171 2.31477 17.3874C2.48277 17.8427 2.751 18.2561 3.09941 18.5949C3.43827 18.9433 3.85159 19.2116 4.30691 19.3796C4.67727 19.5237 5.23282 19.6946 6.25705 19.7413C7.36432 19.7919 7.69555 19.8024 10.5 19.8024C13.3045 19.8024 13.6357 19.7919 14.743 19.7413C15.7672 19.6946 16.3227 19.5237 16.6931 19.3796C17.1828 19.1887 17.5331 18.9624 17.9006 18.5949C18.249 18.2561 18.5172 17.8427 18.6852 17.3874C18.8294 17.0171 19.0002 16.4615 19.047 15.4373C19.0976 14.33 19.1081 13.9978 19.1081 11.1943C19.1081 8.39084 19.0976 8.05865 19.047 6.95138C19.0002 5.92715 18.8294 5.37161 18.6852 5.00125C18.4943 4.51156 18.2681 4.16125 17.9006 3.79375C17.5617 3.4454 17.1491 3.17731 16.6931 3.00911C16.3227 2.86497 15.7672 2.69411 14.743 2.64734ZM9.15886 14.4312C9.90786 14.743 10.7419 14.7851 11.5184 14.5503C12.295 14.3154 12.966 13.8183 13.4167 13.1437C13.8675 12.4692 14.0701 11.6591 13.9899 10.8518C13.9097 10.0444 13.5517 9.28999 12.977 8.71729C12.6107 8.3512 12.1678 8.07088 11.6801 7.89652C11.1925 7.72216 10.6722 7.65809 10.1568 7.70892C9.64145 7.75976 9.14374 7.92423 8.69954 8.19051C8.25534 8.45678 7.87571 8.81823 7.58797 9.24883C7.30023 9.67943 7.11154 10.1685 7.03549 10.6808C6.95944 11.193 6.99792 11.7158 7.14815 12.2114C7.29839 12.707 7.55664 13.1632 7.90432 13.547C8.25201 13.9309 8.68047 14.2328 9.15886 14.4312ZM6.68373 7.37806C7.18489 6.8769 7.77985 6.47936 8.43465 6.20814C9.08945 5.93691 9.79125 5.79731 10.5 5.79731C11.2087 5.79731 11.9106 5.93691 12.5654 6.20814C13.2201 6.47936 13.8151 6.8769 14.3163 7.37806C14.8174 7.87922 15.215 8.47419 15.4862 9.12898C15.7574 9.78378 15.897 10.4856 15.897 11.1943C15.897 11.9031 15.7574 12.6049 15.4862 13.2597C15.215 13.9145 14.8174 14.5094 14.3163 15.0106C13.3041 16.0227 11.9314 16.5914 10.5 16.5914C9.06862 16.5914 7.69587 16.0227 6.68373 15.0106C5.67159 13.9985 5.10298 12.6257 5.10298 11.1943C5.10298 9.76296 5.67159 8.3902 6.68373 7.37806ZM17.094 6.60106C17.2182 6.48391 17.3176 6.34303 17.3864 6.18677C17.4551 6.0305 17.4919 5.86202 17.4944 5.69131C17.4968 5.5206 17.4651 5.35113 17.4009 5.19293C17.3367 5.03472 17.2414 4.89101 17.1207 4.77028C17 4.64956 16.8562 4.55429 16.698 4.4901C16.5398 4.42592 16.3704 4.39413 16.1997 4.39662C16.0289 4.39911 15.8605 4.43582 15.7042 4.50459C15.5479 4.57336 15.4071 4.67278 15.2899 4.79697C15.0621 5.0385 14.9373 5.35932 14.9422 5.69131C14.947 6.02331 15.081 6.34036 15.3158 6.57514C15.5506 6.80992 15.8677 6.94396 16.1997 6.9488C16.5317 6.95364 16.8525 6.8289 17.094 6.60106Z" fill="white"/>
</svg>
