<svg width="16" height="12" viewBox="0 0 16 12" fill="none" xmlns="http://www.w3.org/2000/svg">
<path d="M1 6.4867C0.782994 6.4865 0.571817 6.5538 0.398405 6.67844C0.224994 6.80308 0.0987801 6.97827 0.0388505 7.17753C-0.0210791 7.37679 -0.0114649 7.58927 0.0662392 7.78284C0.143943 7.97641 0.285511 8.14055 0.469534 8.25043L3.15484 10.8158C3.24766 10.9045 3.35784 10.9747 3.47908 11.0227C3.60033 11.0706 3.73027 11.0952 3.86149 11.0952C3.9927 11.0952 4.12263 11.0704 4.24384 11.0224C4.36505 10.9744 4.47517 10.904 4.56792 10.8154C4.66068 10.7267 4.73424 10.6214 4.78441 10.5056C4.83458 10.3898 4.86038 10.2656 4.86033 10.1403C4.86029 10.0149 4.8344 9.89079 4.78414 9.77499C4.73388 9.65919 4.66024 9.55398 4.56743 9.46537L3.44755 8.39645H10.99C11.2549 8.39645 11.509 8.2959 11.6964 8.11691C11.8837 7.93793 11.989 7.69517 11.989 7.44205C11.989 7.18893 11.8837 6.94618 11.6964 6.76719C11.509 6.58821 11.2549 6.48766 10.99 6.48766H1V6.4867Z" fill="#24354D"/>
<path d="M15 4.60849C15.217 4.6087 15.4282 4.5414 15.6016 4.41676C15.775 4.29212 15.9012 4.11692 15.9612 3.91767C16.0211 3.71841 16.0115 3.50593 15.9338 3.31236C15.8561 3.11879 15.7145 2.95465 15.5305 2.84477L12.8452 0.279354C12.6577 0.100397 12.4035 -8.94323e-05 12.1385 5.97239e-08C11.8735 8.95517e-05 11.6194 0.100748 11.4321 0.279832C11.2448 0.458915 11.1396 0.701754 11.1397 0.954927C11.1398 1.2081 11.2451 1.45087 11.4326 1.62982L12.5525 2.69875H5.01002C4.74506 2.69875 4.49096 2.7993 4.30362 2.97828C4.11627 3.15727 4.01102 3.40002 4.01102 3.65314C4.01102 3.90627 4.11627 4.14902 4.30362 4.328C4.49096 4.50699 4.74506 4.60754 5.01002 4.60754H15V4.60849Z" fill="#24354D"/>
</svg>
