<svg width="19" height="18" viewBox="0 0 19 18" fill="none" xmlns="http://www.w3.org/2000/svg">
<g clip-path="url(#clip0_1132_594)">
<path d="M9.92202 9.36206C11.9871 9.36206 13.6612 7.7764 13.6612 5.82039C13.6612 3.86438 11.9871 2.27872 9.92202 2.27872C7.85694 2.27872 6.18286 3.86438 6.18286 5.82039C6.18286 7.7764 7.85694 9.36206 9.92202 9.36206Z" stroke="#24354D" stroke-width="2"/>
<path d="M13.6612 10.7787H13.9244C14.4711 10.7789 14.999 10.9681 15.4088 11.3109C15.8186 11.6537 16.0822 12.1264 16.15 12.6402L16.4424 14.8531C16.4687 15.0524 16.4499 15.2548 16.3873 15.4467C16.3247 15.6387 16.2198 15.8158 16.0794 15.9664C15.939 16.117 15.7664 16.2376 15.573 16.3202C15.3797 16.4028 15.17 16.4454 14.9579 16.4454H4.88613C4.67403 16.4454 4.46434 16.4028 4.27099 16.3202C4.07764 16.2376 3.90505 16.117 3.76466 15.9664C3.62427 15.8158 3.5193 15.6387 3.45672 15.4467C3.39414 15.2548 3.37538 15.0524 3.40168 14.8531L3.69333 12.6402C3.76116 12.1261 4.02493 11.6532 4.43506 11.3104C4.84518 10.9676 5.3734 10.7785 5.92038 10.7787H6.18286" stroke="#24354D" stroke-width="2" stroke-linecap="round" stroke-linejoin="round"/>
</g>
<defs>
<clipPath id="clip0_1132_594">
<rect width="17.948" height="17" fill="white" transform="translate(0.947998 0.862061)"/>
</clipPath>
</defs>
</svg>
