<svg width="22" height="17" viewBox="0 0 22 17" fill="none" xmlns="http://www.w3.org/2000/svg">
<path d="M20.75 0H1.25C0.835156 0 0.5 0.335156 0.5 0.75V15.75C0.5 16.1648 0.835156 16.5 1.25 16.5H20.75C21.1648 16.5 21.5 16.1648 21.5 15.75V0.75C21.5 0.335156 21.1648 0 20.75 0ZM6.92188 3.375C7.74922 3.375 8.42188 4.04766 8.42188 4.875C8.42188 5.70234 7.74922 6.375 6.92188 6.375C6.09453 6.375 5.42188 5.70234 5.42188 4.875C5.42188 4.04766 6.09453 3.375 6.92188 3.375ZM18.9664 13.6195C18.9323 13.6482 18.8891 13.664 18.8445 13.6641H3.15312C3.05 13.6641 2.96562 13.5797 2.96562 13.4766C2.96562 13.432 2.98203 13.3898 3.01016 13.3547L7.00156 8.62031C7.06719 8.54062 7.18672 8.53125 7.26641 8.59687C7.27344 8.60391 7.28281 8.61094 7.28984 8.62031L9.61953 11.3859L13.325 6.99141C13.3906 6.91172 13.5102 6.90234 13.5898 6.96797C13.5969 6.975 13.6062 6.98203 13.6133 6.99141L18.9945 13.357C19.0555 13.4344 19.0461 13.5539 18.9664 13.6195Z" fill="#24354D"/>
</svg>
