<svg width="16" height="15" viewBox="0 0 16 15" fill="none" xmlns="http://www.w3.org/2000/svg">
<path d="M12.8 5.6H10.8C10.36 5.6 10 5.96 10 6.4V9.6C10 10.04 10.36 10.4 10.8 10.4H12.8C13.24 10.4 13.6 10.04 13.6 9.6V6.4C13.6 5.96 13.24 5.6 12.8 5.6ZM12.4 9.2H11.2V6.8H12.4V9.2ZM6 10.4H2.4V8.4C2.4 7.96 2.76 7.6 3.2 7.6H4.8V6.8H2.4V5.6H5.2C5.64 5.6 6 5.96 6 6.4V7.6C6 8.04 5.64 8.4 5.2 8.4H3.6V9.2H6V10.4ZM8.6 7.2H7.4V6H8.6V7.2ZM8.6 10H7.4V8.8H8.6V10ZM16 3.2V12.8C16 13.68 15.28 14.4 14.4 14.4H1.6C0.72 14.4 0 13.68 0 12.8V3.2C0 2.32 0.72 1.6 1.6 1.6H4V0H5.6V1.6H10.4V0H12V1.6H14.4C15.28 1.6 16 2.32 16 3.2ZM14.4 12.8V3.2H8.6V4.4H7.4V3.2H1.6V12.8H7.4V11.6H8.6V12.8H14.4Z" fill="#24354D"/>
</svg>
