<?xml version="1.0" encoding="utf-8"?>
<svg version="1.1"xmlns="http://www.w3.org/2000/svg" xmlns:xlink="http://www.w3.org/1999/xlink" x="0px" y="0px"
	 viewBox="0 0 100 100" style="enable-background:new 0 0 100 100;" xml:space="preserve">
<path class="st0" d="M100,35c-3.3,0-6.5,0-9.9,0c0-6,0-11.9,0-17.9C81.6,25.7,73,34.2,64.5,42.7c-2.4-2.4-4.8-4.8-7.1-7.2
	c8.5-8.5,17-17,25.5-25.5c0-0.1-0.1-0.1-0.1-0.2c-5.9,0-11.8,0-17.8,0c0-3.3,0-6.6,0-9.9c11.7,0,23.3,0,35,0
	C100,11.7,100,23.3,100,35z"/>
<path class="st0" d="M0,65c3.3,0,6.5,0,9.9,0c0,6,0,11.9,0,17.9c8.6-8.6,17.1-17.1,25.7-25.7c2.4,2.4,4.7,4.8,7.1,7.2
	c-8.4,8.7-17,17.1-25.5,25.7c6,0,11.9,0,17.9,0c0,3.4,0,6.6,0,9.9c-11.7,0-23.3,0-35,0C0,88.3,0,76.7,0,65z"/>
</svg>
